<svg id="Layer_1" data-name="Layer 1" xmlns="http://www.w3.org/2000/svg" viewBox="0 0 55.43 81.94"><defs><style>.cls-1{fill:#268ec8;}</style></defs><title>arrow</title><path class="cls-1" d="M209.51,70c7-1,13.88.51,18.12,6.53,4.07,5.79,3,13.62,1.08,20-2.28,7.73-6.82,15.09-11.6,21.49-4.3,5.75-9.24,12.36-15.85,15.6-1.67.82-7.94,1.51-3.52,3.79,2.83,1.46,7.64-1.09,10-2.63,6-3.93,11.35-10.41,15.52-16.21,7.67-10.68,17.48-27.24,12.78-40.78-5.42-15.58-22.7-18.89-36.72-13.58,0-2.49,3.68-8-1.74-8.29-3.88-.23-7.56,6.48-9.39,9.22-2.73,4.06-11.94,15.08-1.46,16.1a43.84,43.84,0,0,0,10.36-.59c4.33-.64,8.68-.65,12.9-2s2.32-4.34-1.29-4.75c-.91-.1-9,.32-9.09-.27-.24-1.6,8.6-3.37,9.9-3.61C210.43,69.88,208.14,70.27,209.51,70Z" transform="translate(-181.84 -55.91)"/></svg>